<svg id="Ebene_1" data-name="Ebene 1" xmlns="http://www.w3.org/2000/svg" viewBox="0 0 210 110"><defs><style>.cls-1{fill:#e84e0f;}.cls-2{fill:#f7a600;}</style></defs><title>Schweizer-Paraplegiker-Forschung-de</title><polygon class="cls-1" points="43.27 84.61 30 84.61 30 22.99 91.7 22.99 91.7 47.73 88.98 47.73 88.98 25.62 32.67 25.62 32.67 82.02 43.27 82.02 43.27 84.61"/><path class="cls-1" d="M107.68,53.67c0,1.17.91,1.63,1.95,1.63.68,0,1.71-.2,1.71-1.1s-1.32-1.11-2.61-1.46-2.63-.85-2.63-2.51,1.7-2.67,3.29-2.67c1.84,0,3.54.81,3.54,2.84h-1.88c-.06-1.06-.82-1.33-1.74-1.33-.62,0-1.34.26-1.34,1s.42.77,2.63,1.34c.65.16,2.62.56,2.62,2.56,0,1.62-1.27,2.83-3.67,2.83-2,0-3.78-1-3.75-3.13Z"/><path class="cls-1" d="M118.53,52.46a1.19,1.19,0,0,0-1.29-1.1c-1.13,0-1.5,1.13-1.5,2.07s.36,2,1.46,2a1.35,1.35,0,0,0,1.4-1.29h1.69a2.86,2.86,0,0,1-3.08,2.62A3.1,3.1,0,0,1,114,53.49,3.16,3.16,0,0,1,117.25,50a2.71,2.71,0,0,1,3,2.43Z"/><path class="cls-1" d="M121.28,47.77H123V51.1h0A2.24,2.24,0,0,1,124.93,50c1.87,0,2.34,1,2.34,2.64v3.92h-1.76V53c0-1.05-.31-1.57-1.12-1.57S123,52,123,53.25v3.34h-1.75Z"/><path class="cls-1" d="M135.9,56.59h-1.8L133,52.31h0l-1.09,4.28H130l-2-6.38h1.85L131,54.54h0l1.06-4.33h1.71l1.08,4.32h0l1.17-4.32h1.81Z"/><path class="cls-1" d="M140.1,52.71a1.39,1.39,0,0,1,1.46-1.35c.85,0,1.23.47,1.39,1.35Zm4.61,1.12c.12-2-.93-3.8-3.1-3.8a3.2,3.2,0,0,0-3.26,3.38,3.12,3.12,0,0,0,3.26,3.36,2.89,2.89,0,0,0,3-2.15h-1.55a1.45,1.45,0,0,1-1.38.82c-1,0-1.52-.5-1.57-1.61Z"/><path class="cls-1" d="M145.8,50.21h1.75v6.38H145.8Zm1.75-1H145.8V47.77h1.75Z"/><path class="cls-1" d="M148.54,55.27l3.32-3.74h-3.07V50.21h5.38v1.32l-3.32,3.74h3.56v1.32h-5.87Z"/><path class="cls-1" d="M156.79,52.71a1.38,1.38,0,0,1,1.46-1.35c.85,0,1.23.47,1.39,1.35Zm4.61,1.12c.12-2-.93-3.8-3.1-3.8A3.2,3.2,0,0,0,155,53.41a3.12,3.12,0,0,0,3.26,3.36,2.89,2.89,0,0,0,3-2.15h-1.55a1.45,1.45,0,0,1-1.38.82c-1,0-1.52-.5-1.57-1.61Z"/><path class="cls-1" d="M162.43,50.21h1.67v1.18h0a2.26,2.26,0,0,1,2-1.36,1.22,1.22,0,0,1,.38.07v1.63a3,3,0,0,0-.63-.07c-1.29,0-1.73.93-1.73,2.06v2.87h-1.76Z"/><path class="cls-1" d="M108.29,63.28h1.51c.9,0,1.71.2,1.71,1.32s-.81,1.32-1.71,1.32h-1.51Zm-1.94,7.31h1.94V67.43h2a2.84,2.84,0,1,0,0-5.66h-4Z"/><path class="cls-1" d="M118.14,68.12a1.3,1.3,0,0,1-1.42,1.47c-.57,0-1.08-.16-1.08-.81s.5-.83,1-.94a3.54,3.54,0,0,0,1.46-.37Zm-2.3-2c.06-.69.5-1,1.16-1s1.14.11,1.14.86-1,.68-2.08.84-2.17.5-2.17,1.94,1,1.92,2.17,1.92a2.92,2.92,0,0,0,2.15-.79,2.45,2.45,0,0,0,.13.61h1.78a3.26,3.26,0,0,1-.23-1.42V65.85c0-1.53-1.53-1.82-2.8-1.82-1.43,0-2.9.5-3,2.14Z"/><path class="cls-1" d="M121.25,64.21h1.67v1.18h0A2.28,2.28,0,0,1,125,64a1.28,1.28,0,0,1,.39.07v1.63a3.12,3.12,0,0,0-.63-.07c-1.29,0-1.73.93-1.73,2.06v2.87h-1.76Z"/><path class="cls-1" d="M130,68.12a1.3,1.3,0,0,1-1.42,1.47c-.56,0-1.07-.16-1.07-.81s.49-.83,1-.94a3.45,3.45,0,0,0,1.45-.37Zm-2.29-2c.06-.69.49-1,1.16-1s1.13.11,1.13.86-1,.68-2.07.84-2.17.5-2.17,1.94,1,1.92,2.17,1.92a2.94,2.94,0,0,0,2.15-.79,2.44,2.44,0,0,0,.12.61H132a3.29,3.29,0,0,1-.22-1.42V65.85c0-1.53-1.53-1.82-2.81-1.82s-2.9.5-3,2.14Z"/><path class="cls-1" d="M136.37,69.44c-1.14,0-1.53-1-1.53-2s.37-2.06,1.52-2.06,1.53,1,1.53,2.06S137.52,69.44,136.37,69.44Zm-3.22,3.4h1.75v-3h0a2.26,2.26,0,0,0,1.91,1c1.87,0,2.8-1.6,2.8-3.3s-.9-3.44-2.9-3.44a2.12,2.12,0,0,0-1.9,1h0v-.81h-1.66Z"/><path class="cls-1" d="M140.74,61.77h1.76v8.82h-1.76Z"/><path class="cls-1" d="M145.33,66.71a1.37,1.37,0,0,1,1.45-1.35c.86,0,1.24.47,1.4,1.35Zm4.6,1.12c.13-2-.92-3.8-3.1-3.8a3.2,3.2,0,0,0-3.26,3.38,3.12,3.12,0,0,0,3.26,3.36,2.87,2.87,0,0,0,3-2.15h-1.54a1.45,1.45,0,0,1-1.38.82c-1,0-1.52-.5-1.57-1.61Z"/><path class="cls-1" d="M154,69.09c-1.08,0-1.42-1-1.42-1.92s.43-1.81,1.42-1.81c1.14,0,1.49.92,1.49,2A1.57,1.57,0,0,1,154,69.09Zm3.16-4.88h-1.67v.85h0a2,2,0,0,0-1.9-1c-1.79,0-2.75,1.51-2.75,3.17s.82,3.21,2.73,3.21a2.15,2.15,0,0,0,1.92-1h0v.84a1.36,1.36,0,0,1-1.4,1.58,1.18,1.18,0,0,1-1.31-.88H151c.09,1.46,1.56,2.05,2.82,2.05,2.94,0,3.31-1.77,3.31-2.82Z"/><path class="cls-1" d="M158.57,64.21h1.75v6.38h-1.75Zm1.75-1h-1.75V61.77h1.75Z"/><path class="cls-1" d="M161.87,61.77h1.75V66.5l2.21-2.29h2.08l-2.41,2.34,2.68,4h-2.13l-1.75-2.85-.68.65v2.2h-1.75Z"/><path class="cls-1" d="M170.24,66.71a1.39,1.39,0,0,1,1.46-1.35c.85,0,1.23.47,1.4,1.35Zm4.61,1.12c.12-2-.93-3.8-3.1-3.8a3.2,3.2,0,0,0-3.26,3.38,3.12,3.12,0,0,0,3.26,3.36,2.89,2.89,0,0,0,3-2.15h-1.55a1.45,1.45,0,0,1-1.38.82c-1,0-1.52-.5-1.57-1.61Z"/><path class="cls-1" d="M175.89,64.21h1.66v1.18h0a2.26,2.26,0,0,1,2-1.36,1.22,1.22,0,0,1,.38.07v1.63a3,3,0,0,0-.63-.07c-1.28,0-1.73.93-1.73,2.06v2.87h-1.75Z"/><path class="cls-2" d="M76.86,47.73H70.27V53h6.59c8,0,9.26,5.27,9.26,7.92,0,5.28-4,7.89-9.26,7.89H71.27V79.35h-5.6V68.81H60.08V84.62H76.86V74.08c9.24,0,14.84-5.27,14.84-13.16S86.1,47.73,76.86,47.73Z"/><path class="cls-2" d="M54.49,63.54V53h5.59V63.54H76c1.74,0,3.08-.87,3.08-2.63,0-.87-.44-2.64-3.08-2.64H65.67V47.73H48.89V58.27H38.35V74.08H48.89V84.62h5.6V68.81H43.62V63.54Z"/><polygon class="cls-2" points="106.35 84.59 108.29 84.59 108.29 80.95 111.99 80.95 111.99 79.44 108.29 79.44 108.29 77.4 112.56 77.4 112.56 75.77 106.35 75.77 106.35 84.59"/><path class="cls-2" d="M116.1,78a3.37,3.37,0,1,0,3.31,3.38A3.14,3.14,0,0,0,116.1,78Zm0,5.41c-1.18,0-1.54-1-1.54-2s.36-2,1.54-2,1.56,1,1.56,2S117.3,83.44,116.1,83.44Z"/><path class="cls-2" d="M122.24,79.39h0V78.21h-1.67v6.38h1.75V81.71c0-1.12.45-2,1.73-2a3,3,0,0,1,.63.07V78.1a1.22,1.22,0,0,0-.38-.07A2.27,2.27,0,0,0,122.24,79.39Z"/><path class="cls-2" d="M128.93,80.75c-1-.23-2-.32-2-1s.58-.59,1-.59c.63,0,1.15.18,1.2.86h1.67c-.14-1.57-1.42-2-2.82-2s-2.78.42-2.78,2c0,1.13,1,1.49,2,1.71,1.26.27,2,.46,2,1s-.65.81-1.15.81c-.69,0-1.34-.31-1.35-1.07H125c.08,1.69,1.52,2.25,3,2.25s2.91-.55,2.91-2.23C131,81.36,130,81,128.93,80.75Z"/><path class="cls-2" d="M135,83.44c-1.1,0-1.46-1.09-1.46-2s.37-2.07,1.5-2.07a1.19,1.19,0,0,1,1.29,1.1h1.72a2.71,2.71,0,0,0-3-2.43,3.16,3.16,0,0,0-3.26,3.46A3.1,3.1,0,0,0,135,84.77a2.86,2.86,0,0,0,3.08-2.62H136.4A1.35,1.35,0,0,1,135,83.44Z"/><path class="cls-2" d="M142.73,78a2.24,2.24,0,0,0-1.86,1.07h0V75.77h-1.75v8.82h1.75V81.25c0-1.3.41-1.83,1.36-1.83s1.12.52,1.12,1.57v3.6h1.76V80.66C145.07,79.08,144.6,78,142.73,78Z"/><path class="cls-2" d="M150.64,81.55c0,1.3-.41,1.83-1.36,1.83s-1.12-.52-1.12-1.57v-3.6H146.4v3.92c0,1.59.47,2.64,2.34,2.64a2.28,2.28,0,0,0,1.95-1.07h0v.89h1.67V78.21h-1.75Z"/><path class="cls-2" d="M157.38,78a2.28,2.28,0,0,0-1.95,1.07h0v-.89h-1.66v6.38h1.75V81.25c0-1.3.41-1.83,1.36-1.83S158,79.94,158,81v3.6h1.76V80.66C159.72,79.08,159.25,78,157.38,78Z"/><path class="cls-2" d="M165.52,78.21v.85h0a2,2,0,0,0-1.9-1c-1.8,0-2.75,1.51-2.75,3.17s.82,3.21,2.73,3.21a2.15,2.15,0,0,0,1.92-1h0v.84a1.36,1.36,0,0,1-1.41,1.58,1.18,1.18,0,0,1-1.3-.88h-1.75c.09,1.46,1.56,2.05,2.82,2.05,2.94,0,3.31-1.77,3.31-2.82v-6ZM164,83.09c-1.08,0-1.42-1-1.42-1.92s.43-1.81,1.42-1.81,1.49.92,1.49,2A1.57,1.57,0,0,1,164,83.09Z"/></svg>