<?xml version="1.0" encoding="UTF-8" standalone="no"?>
<svg
   xmlns:dc="http://purl.org/dc/elements/1.1/"
   xmlns:cc="http://creativecommons.org/ns#"
   xmlns:rdf="http://www.w3.org/1999/02/22-rdf-syntax-ns#"
   xmlns:svg="http://www.w3.org/2000/svg"
   xmlns="http://www.w3.org/2000/svg"
   xmlns:sodipodi="http://sodipodi.sourceforge.net/DTD/sodipodi-0.dtd"
   xmlns:inkscape="http://www.inkscape.org/namespaces/inkscape"
   id="Ebene_1"
   data-name="Ebene 1"
   viewBox="0 0 149.92999 64.040001"
   version="1.1"
   sodipodi:docname="Schweizer-Paraplegiker-Forschung-de_cropped.svg"
   width="149.92999"
   height="64.040001"
   inkscape:version="1.0.1 (3bc2e813f5, 2020-09-07)">
  <metadata
     id="metadata77">
    <rdf:RDF>
      <cc:Work
         rdf:about="">
        <dc:format>image/svg+xml</dc:format>
        <dc:type
           rdf:resource="http://purl.org/dc/dcmitype/StillImage" />
        <dc:title>Schweizer-Paraplegiker-Forschung-de</dc:title>
      </cc:Work>
    </rdf:RDF>
  </metadata>
  <sodipodi:namedview
     pagecolor="#ffffff"
     bordercolor="#666666"
     borderopacity="1"
     objecttolerance="10"
     gridtolerance="10"
     guidetolerance="10"
     inkscape:pageopacity="0"
     inkscape:pageshadow="2"
     inkscape:window-width="1920"
     inkscape:window-height="1017"
     id="namedview75"
     showgrid="false"
     fit-margin-top="0"
     fit-margin-left="0"
     fit-margin-right="0"
     fit-margin-bottom="0"
     inkscape:zoom="4.9619048"
     inkscape:cx="75"
     inkscape:cy="32.01"
     inkscape:window-x="-8"
     inkscape:window-y="-8"
     inkscape:window-maximized="1"
     inkscape:current-layer="Ebene_1" />
  <defs
     id="defs4">
    <style
       id="style2">.cls-1{fill:#e84e0f;}.cls-2{fill:#f7a600;}</style>
  </defs>
  <title
     id="title6">Schweizer-Paraplegiker-Forschung-de</title>
  <polygon
     class="cls-1"
     points="30,22.99 91.7,22.99 91.7,47.73 88.98,47.73 88.98,25.62 32.67,25.62 32.67,82.02 43.27,82.02 43.27,84.61 30,84.61 "
     id="polygon8"
     transform="translate(-30,-22.99)" />
  <path
     class="cls-1"
     d="m 77.68,30.68 c 0,1.17 0.91,1.63 1.95,1.63 0.68,0 1.71,-0.2 1.71,-1.1 0,-0.9 -1.32,-1.11 -2.61,-1.46 -1.29,-0.35 -2.63,-0.85 -2.63,-2.51 0,-1.66 1.7,-2.67 3.29,-2.67 1.84,0 3.54,0.81 3.54,2.84 h -1.88 c -0.06,-1.06 -0.82,-1.33 -1.74,-1.33 -0.62,0 -1.34,0.26 -1.34,1 0,0.74 0.42,0.77 2.63,1.34 0.65,0.16 2.62,0.56 2.62,2.56 0,1.62 -1.27,2.83 -3.67,2.83 -2,0 -3.78,-1 -3.75,-3.13 z"
     id="path10" />
  <path
     class="cls-1"
     d="m 88.53,29.47 a 1.19,1.19 0 0 0 -1.29,-1.1 c -1.13,0 -1.5,1.13 -1.5,2.07 0,0.94 0.36,2 1.46,2 a 1.35,1.35 0 0 0 1.4,-1.29 h 1.69 A 2.86,2.86 0 0 1 87.21,33.77 3.1,3.1 0 0 1 84,30.5 a 3.16,3.16 0 0 1 3.25,-3.49 2.71,2.71 0 0 1 3,2.43 z"
     id="path12" />
  <path
     class="cls-1"
     d="M 91.28,24.78 H 93 v 3.33 0 a 2.24,2.24 0 0 1 1.93,-1.1 c 1.87,0 2.34,1 2.34,2.64 v 3.92 h -1.76 v -3.56 c 0,-1.05 -0.31,-1.57 -1.12,-1.57 -0.81,0 -1.39,0.57 -1.39,1.82 v 3.34 h -1.75 z"
     id="path14" />
  <path
     class="cls-1"
     d="m 105.9,33.6 h -1.8 L 103,29.32 v 0 l -1.09,4.28 H 100 l -2,-6.38 h 1.85 l 1.15,4.33 v 0 l 1.06,-4.33 h 1.71 l 1.08,4.32 v 0 l 1.17,-4.32 h 1.81 z"
     id="path16" />
  <path
     class="cls-1"
     d="m 110.1,29.72 a 1.39,1.39 0 0 1 1.46,-1.35 c 0.85,0 1.23,0.47 1.39,1.35 z m 4.61,1.12 c 0.12,-2 -0.93,-3.8 -3.1,-3.8 a 3.2,3.2 0 0 0 -3.26,3.38 3.12,3.12 0 0 0 3.26,3.36 2.89,2.89 0 0 0 3,-2.15 h -1.55 a 1.45,1.45 0 0 1 -1.38,0.82 c -1,0 -1.52,-0.5 -1.57,-1.61 z"
     id="path18" />
  <path
     class="cls-1"
     d="m 115.8,27.22 h 1.75 v 6.38 h -1.75 z m 1.75,-1 h -1.75 v -1.44 h 1.75 z"
     id="path20" />
  <path
     class="cls-1"
     d="m 118.54,32.28 3.32,-3.74 h -3.07 v -1.32 h 5.38 v 1.32 l -3.32,3.74 h 3.56 v 1.32 h -5.87 z"
     id="path22" />
  <path
     class="cls-1"
     d="m 126.79,29.72 a 1.38,1.38 0 0 1 1.46,-1.35 c 0.85,0 1.23,0.47 1.39,1.35 z m 4.61,1.12 c 0.12,-2 -0.93,-3.8 -3.1,-3.8 a 3.2,3.2 0 0 0 -3.3,3.38 3.12,3.12 0 0 0 3.26,3.36 2.89,2.89 0 0 0 3,-2.15 h -1.55 a 1.45,1.45 0 0 1 -1.38,0.82 c -1,0 -1.52,-0.5 -1.57,-1.61 z"
     id="path24" />
  <path
     class="cls-1"
     d="m 132.43,27.22 h 1.67 v 1.18 0 a 2.26,2.26 0 0 1 2,-1.36 1.22,1.22 0 0 1 0.38,0.07 v 1.63 a 3,3 0 0 0 -0.63,-0.07 c -1.29,0 -1.73,0.93 -1.73,2.06 v 2.87 h -1.76 z"
     id="path26" />
  <path
     class="cls-1"
     d="m 78.29,40.29 h 1.51 c 0.9,0 1.71,0.2 1.71,1.32 0,1.12 -0.81,1.32 -1.71,1.32 h -1.51 z m -1.94,7.31 h 1.94 v -3.16 h 2 a 2.84,2.84 0 1 0 0,-5.66 h -4 z"
     id="path28" />
  <path
     class="cls-1"
     d="m 88.14,45.13 a 1.3,1.3 0 0 1 -1.42,1.47 c -0.57,0 -1.08,-0.16 -1.08,-0.81 0,-0.65 0.5,-0.83 1,-0.94 a 3.54,3.54 0 0 0 1.46,-0.37 z m -2.3,-2 c 0.06,-0.69 0.5,-1 1.16,-1 0.66,0 1.14,0.11 1.14,0.86 0,0.75 -1,0.68 -2.08,0.84 -1.08,0.16 -2.17,0.5 -2.17,1.94 0,1.44 1,1.92 2.17,1.92 a 2.92,2.92 0 0 0 2.15,-0.79 2.45,2.45 0 0 0 0.13,0.61 h 1.78 a 3.26,3.26 0 0 1 -0.23,-1.42 v -3.23 c 0,-1.53 -1.53,-1.82 -2.8,-1.82 -1.43,0 -2.9,0.5 -3,2.14 z"
     id="path30" />
  <path
     class="cls-1"
     d="m 91.25,41.22 h 1.67 v 1.18 0 a 2.28,2.28 0 0 1 2.08,-1.39 1.28,1.28 0 0 1 0.39,0.07 v 1.63 a 3.12,3.12 0 0 0 -0.63,-0.07 c -1.29,0 -1.73,0.93 -1.73,2.06 v 2.87 h -1.76 z"
     id="path32" />
  <path
     class="cls-1"
     d="m 100,45.13 a 1.3,1.3 0 0 1 -1.42,1.47 c -0.56,0 -1.07,-0.16 -1.07,-0.81 0,-0.65 0.49,-0.83 1,-0.94 a 3.45,3.45 0 0 0 1.45,-0.37 z m -2.29,-2 c 0.06,-0.69 0.49,-1 1.16,-1 0.67,0 1.13,0.11 1.13,0.86 0,0.75 -1,0.68 -2.07,0.84 -1.07,0.16 -2.17,0.5 -2.17,1.94 0,1.44 1,1.92 2.17,1.92 a 2.94,2.94 0 0 0 2.15,-0.79 2.44,2.44 0 0 0 0.12,0.61 h 1.8 a 3.29,3.29 0 0 1 -0.22,-1.42 v -3.23 c 0,-1.53 -1.53,-1.82 -2.81,-1.82 -1.28,0 -2.9,0.5 -3,2.14 z"
     id="path34" />
  <path
     class="cls-1"
     d="m 106.37,46.45 c -1.14,0 -1.53,-1 -1.53,-2 0,-1 0.37,-2.06 1.52,-2.06 1.15,0 1.53,1 1.53,2.06 0,1.06 -0.37,2 -1.52,2 z m -3.22,3.4 h 1.75 v -3 0 a 2.26,2.26 0 0 0 1.91,1 c 1.87,0 2.8,-1.6 2.8,-3.3 0,-1.7 -0.9,-3.44 -2.9,-3.44 a 2.12,2.12 0 0 0 -1.9,1 v 0 -0.81 h -1.66 z"
     id="path36" />
  <path
     class="cls-1"
     d="m 110.74,38.78 h 1.76 v 8.82 h -1.76 z"
     id="path38" />
  <path
     class="cls-1"
     d="m 115.33,43.72 a 1.37,1.37 0 0 1 1.45,-1.35 c 0.86,0 1.24,0.47 1.4,1.35 z m 4.6,1.12 c 0.13,-2 -0.92,-3.8 -3.1,-3.8 a 3.2,3.2 0 0 0 -3.26,3.38 3.12,3.12 0 0 0 3.26,3.36 2.87,2.87 0 0 0 3,-2.15 h -1.54 a 1.45,1.45 0 0 1 -1.38,0.82 c -1,0 -1.52,-0.5 -1.57,-1.61 z"
     id="path40" />
  <path
     class="cls-1"
     d="m 124,46.1 c -1.08,0 -1.42,-1 -1.42,-1.92 0,-0.92 0.43,-1.81 1.42,-1.81 1.14,0 1.49,0.92 1.49,2 A 1.57,1.57 0 0 1 124,46.1 Z m 3.16,-4.88 h -1.67 v 0.85 0 a 2,2 0 0 0 -1.9,-1 c -1.79,0 -2.75,1.51 -2.75,3.17 0,1.66 0.82,3.21 2.73,3.21 a 2.15,2.15 0 0 0 1.92,-1 v 0 0.84 a 1.36,1.36 0 0 1 -1.4,1.58 1.18,1.18 0 0 1 -1.31,-0.88 H 121 c 0.09,1.46 1.56,2.05 2.82,2.05 2.94,0 3.31,-1.77 3.31,-2.82 z"
     id="path42" />
  <path
     class="cls-1"
     d="m 128.57,41.22 h 1.75 v 6.38 h -1.75 z m 1.75,-1 h -1.75 v -1.44 h 1.75 z"
     id="path44" />
  <path
     class="cls-1"
     d="m 131.87,38.78 h 1.75 v 4.73 l 2.21,-2.29 h 2.08 l -2.41,2.34 2.68,4 h -2.13 l -1.75,-2.85 -0.68,0.65 v 2.2 h -1.75 z"
     id="path46" />
  <path
     class="cls-1"
     d="m 140.24,43.72 a 1.39,1.39 0 0 1 1.46,-1.35 c 0.85,0 1.23,0.47 1.4,1.35 z m 4.61,1.12 c 0.12,-2 -0.93,-3.8 -3.1,-3.8 a 3.2,3.2 0 0 0 -3.26,3.38 3.12,3.12 0 0 0 3.26,3.36 2.89,2.89 0 0 0 3,-2.15 h -1.55 a 1.45,1.45 0 0 1 -1.38,0.82 c -1,0 -1.52,-0.5 -1.57,-1.61 z"
     id="path48" />
  <path
     class="cls-1"
     d="m 145.89,41.22 h 1.66 v 1.18 0 a 2.26,2.26 0 0 1 2,-1.36 1.22,1.22 0 0 1 0.38,0.07 v 1.63 a 3,3 0 0 0 -0.63,-0.07 c -1.28,0 -1.73,0.93 -1.73,2.06 v 2.87 h -1.75 z"
     id="path50" />
  <path
     class="cls-2"
     d="m 46.86,24.74 h -6.59 v 5.27 h 6.59 c 8,0 9.26,5.27 9.26,7.92 0,5.28 -4,7.89 -9.26,7.89 h -5.59 v 10.54 h -5.6 V 45.82 H 30.08 V 61.63 H 46.86 V 51.09 c 9.24,0 14.84,-5.27 14.84,-13.16 0,-7.89 -5.6,-13.19 -14.84,-13.19 z"
     id="path52" />
  <path
     class="cls-2"
     d="M 24.49,40.55 V 30.01 h 5.59 V 40.55 H 46 c 1.74,0 3.08,-0.87 3.08,-2.63 0,-0.87 -0.44,-2.64 -3.08,-2.64 H 35.67 V 24.74 H 18.89 V 35.28 H 8.35 v 15.81 h 10.54 v 10.54 h 5.6 V 45.82 H 13.62 v -5.27 z"
     id="path54" />
  <polygon
     class="cls-2"
     points="108.29,80.95 111.99,80.95 111.99,79.44 108.29,79.44 108.29,77.4 112.56,77.4 112.56,75.77 106.35,75.77 106.35,84.59 108.29,84.59 "
     id="polygon56"
     transform="translate(-30,-22.99)" />
  <path
     class="cls-2"
     d="m 86.1,55.01 a 3.37,3.37 0 1 0 3.31,3.38 3.14,3.14 0 0 0 -3.31,-3.38 z m 0,5.41 c -1.18,0 -1.54,-1 -1.54,-2 0,-1 0.36,-2 1.54,-2 1.18,0 1.56,1 1.56,2 0,1 -0.36,2.03 -1.56,2.03 z"
     id="path58" />
  <path
     class="cls-2"
     d="m 92.24,56.4 v 0 -1.18 h -1.67 v 6.38 h 1.75 v -2.88 c 0,-1.12 0.45,-2 1.73,-2 a 3,3 0 0 1 0.63,0.07 V 55.11 A 1.22,1.22 0 0 0 94.3,55.04 2.27,2.27 0 0 0 92.24,56.4 Z"
     id="path60" />
  <path
     class="cls-2"
     d="m 98.93,57.76 c -1,-0.23 -2,-0.32 -2,-1 0,-0.68 0.58,-0.59 1,-0.59 0.63,0 1.15,0.18 1.2,0.86 h 1.67 c -0.14,-1.57 -1.42,-2 -2.82,-2 -1.4,0 -2.78,0.42 -2.78,2 0,1.13 1,1.49 2,1.71 1.26,0.27 2,0.46 2,1 0,0.54 -0.65,0.81 -1.15,0.81 -0.69,0 -1.34,-0.31 -1.35,-1.07 H 95 c 0.08,1.69 1.52,2.25 3,2.25 1.48,0 2.91,-0.55 2.91,-2.23 C 101,58.37 100,58.01 98.93,57.76 Z"
     id="path62" />
  <path
     class="cls-2"
     d="m 105,60.45 c -1.1,0 -1.46,-1.09 -1.46,-2 0,-0.91 0.37,-2.07 1.5,-2.07 a 1.19,1.19 0 0 1 1.29,1.1 h 1.72 a 2.71,2.71 0 0 0 -3,-2.43 3.16,3.16 0 0 0 -3.26,3.46 3.1,3.1 0 0 0 3.21,3.27 2.86,2.86 0 0 0 3.08,-2.62 h -1.68 a 1.35,1.35 0 0 1 -1.4,1.29 z"
     id="path64" />
  <path
     class="cls-2"
     d="m 112.73,55.01 a 2.24,2.24 0 0 0 -1.86,1.07 v 0 -3.3 h -1.75 v 8.82 h 1.75 v -3.34 c 0,-1.3 0.41,-1.83 1.36,-1.83 0.95,0 1.12,0.52 1.12,1.57 v 3.6 h 1.76 v -3.93 c -0.04,-1.58 -0.51,-2.66 -2.38,-2.66 z"
     id="path66" />
  <path
     class="cls-2"
     d="m 120.64,58.56 c 0,1.3 -0.41,1.83 -1.36,1.83 -0.95,0 -1.12,-0.52 -1.12,-1.57 v -3.6 h -1.76 v 3.92 c 0,1.59 0.47,2.64 2.34,2.64 a 2.28,2.28 0 0 0 1.95,-1.07 v 0 0.89 h 1.67 v -6.38 h -1.75 z"
     id="path68" />
  <path
     class="cls-2"
     d="m 127.38,55.01 a 2.28,2.28 0 0 0 -1.95,1.07 v 0 -0.89 h -1.66 v 6.38 h 1.75 v -3.31 c 0,-1.3 0.41,-1.83 1.36,-1.83 0.95,0 1.12,0.52 1.12,1.58 v 3.6 h 1.76 v -3.94 c -0.04,-1.58 -0.51,-2.66 -2.38,-2.66 z"
     id="path70" />
  <path
     class="cls-2"
     d="m 135.52,55.22 v 0.85 0 a 2,2 0 0 0 -1.9,-1 c -1.8,0 -2.75,1.51 -2.75,3.17 0,1.66 0.82,3.21 2.73,3.21 a 2.15,2.15 0 0 0 1.92,-1 v 0 0.84 a 1.36,1.36 0 0 1 -1.41,1.58 1.18,1.18 0 0 1 -1.3,-0.88 h -1.75 c 0.09,1.46 1.56,2.05 2.82,2.05 2.94,0 3.31,-1.77 3.31,-2.82 v -6 z M 134,60.1 c -1.08,0 -1.42,-1 -1.42,-1.92 0,-0.92 0.43,-1.81 1.42,-1.81 0.99,0 1.49,0.92 1.49,2 A 1.57,1.57 0 0 1 134,60.1 Z"
     id="path72" />
</svg>
